<mxfile host="app.diagrams.net" modified="2023-11-14T19:09:59.529Z" agent="Mozilla/5.0 (Windows NT 10.0; Win64; x64) AppleWebKit/537.36 (KHTML, like Gecko) Chrome/116.0.0.0 Safari/537.36" etag="kT0j4Y6fn1aKv8R5Y9h1" version="22.1.1" type="device" pages="2">
  <diagram name="Trang-1" id="7ms5ADw_K6emCGuy5kvS">
    <mxGraphModel dx="1328" dy="795" grid="1" gridSize="10" guides="1" tooltips="1" connect="1" arrows="1" fold="1" page="1" pageScale="1" pageWidth="827" pageHeight="1169" math="0" shadow="0">
      <root>
        <mxCell id="0" />
        <mxCell id="1" parent="0" />
        <mxCell id="G73dcHl8T9tQuUAj2ZNt-2" value="" style="swimlane;startSize=0;" parent="1" vertex="1">
          <mxGeometry x="120" y="160" width="200" height="440" as="geometry" />
        </mxCell>
        <mxCell id="G73dcHl8T9tQuUAj2ZNt-17" style="edgeStyle=orthogonalEdgeStyle;rounded=0;orthogonalLoop=1;jettySize=auto;html=1;exitX=0.5;exitY=1;exitDx=0;exitDy=0;entryX=0.5;entryY=0;entryDx=0;entryDy=0;" parent="G73dcHl8T9tQuUAj2ZNt-2" source="G73dcHl8T9tQuUAj2ZNt-1" target="G73dcHl8T9tQuUAj2ZNt-4" edge="1">
          <mxGeometry relative="1" as="geometry" />
        </mxCell>
        <mxCell id="G73dcHl8T9tQuUAj2ZNt-1" value="Oбучение" style="rounded=0;whiteSpace=wrap;html=1;fontSize=16;fontFamily=Times New Roman;fillColor=#0050ef;strokeColor=#001DBC;fontColor=#ffffff;" parent="G73dcHl8T9tQuUAj2ZNt-2" vertex="1">
          <mxGeometry x="40" y="20" width="120" height="60" as="geometry" />
        </mxCell>
        <mxCell id="G73dcHl8T9tQuUAj2ZNt-19" style="edgeStyle=orthogonalEdgeStyle;rounded=0;orthogonalLoop=1;jettySize=auto;html=1;exitX=0.5;exitY=1;exitDx=0;exitDy=0;" parent="G73dcHl8T9tQuUAj2ZNt-2" source="G73dcHl8T9tQuUAj2ZNt-4" target="G73dcHl8T9tQuUAj2ZNt-7" edge="1">
          <mxGeometry relative="1" as="geometry" />
        </mxCell>
        <mxCell id="G73dcHl8T9tQuUAj2ZNt-4" value="Метка" style="rounded=1;whiteSpace=wrap;html=1;fontSize=16;fontFamily=Times New Roman;fillColor=#fa6800;fontColor=#000000;strokeColor=#C73500;" parent="G73dcHl8T9tQuUAj2ZNt-2" vertex="1">
          <mxGeometry x="40" y="100" width="120" height="60" as="geometry" />
        </mxCell>
        <mxCell id="G73dcHl8T9tQuUAj2ZNt-20" style="edgeStyle=orthogonalEdgeStyle;rounded=0;orthogonalLoop=1;jettySize=auto;html=1;entryX=0.5;entryY=0;entryDx=0;entryDy=0;" parent="G73dcHl8T9tQuUAj2ZNt-2" source="G73dcHl8T9tQuUAj2ZNt-7" target="G73dcHl8T9tQuUAj2ZNt-15" edge="1">
          <mxGeometry relative="1" as="geometry" />
        </mxCell>
        <mxCell id="G73dcHl8T9tQuUAj2ZNt-7" value="Входные документы" style="rounded=0;whiteSpace=wrap;html=1;fontSize=16;fontFamily=Times New Roman;fillColor=#bac8d3;strokeColor=#23445d;" parent="G73dcHl8T9tQuUAj2ZNt-2" vertex="1">
          <mxGeometry x="40" y="180" width="120" height="60" as="geometry" />
        </mxCell>
        <mxCell id="G73dcHl8T9tQuUAj2ZNt-5" value="Алгоритмы машинного обучения" style="rounded=0;whiteSpace=wrap;html=1;fontSize=16;fontFamily=Times New Roman;" parent="G73dcHl8T9tQuUAj2ZNt-2" vertex="1">
          <mxGeometry x="40" y="360" width="120" height="60" as="geometry" />
        </mxCell>
        <mxCell id="G73dcHl8T9tQuUAj2ZNt-22" style="edgeStyle=orthogonalEdgeStyle;rounded=0;orthogonalLoop=1;jettySize=auto;html=1;exitX=0.5;exitY=1;exitDx=0;exitDy=0;entryX=0.5;entryY=0;entryDx=0;entryDy=0;" parent="G73dcHl8T9tQuUAj2ZNt-2" source="G73dcHl8T9tQuUAj2ZNt-15" target="G73dcHl8T9tQuUAj2ZNt-5" edge="1">
          <mxGeometry relative="1" as="geometry" />
        </mxCell>
        <mxCell id="G73dcHl8T9tQuUAj2ZNt-15" value="Извлечение признаков" style="rounded=0;whiteSpace=wrap;html=1;fontSize=16;fontFamily=Times New Roman;fillColor=#b0e3e6;strokeColor=#0e8088;" parent="G73dcHl8T9tQuUAj2ZNt-2" vertex="1">
          <mxGeometry x="40" y="270" width="120" height="60" as="geometry" />
        </mxCell>
        <mxCell id="G73dcHl8T9tQuUAj2ZNt-3" value="" style="swimlane;startSize=0;" parent="1" vertex="1">
          <mxGeometry x="360" y="230" width="200" height="370" as="geometry" />
        </mxCell>
        <mxCell id="G73dcHl8T9tQuUAj2ZNt-12" value="Классификация" style="rounded=0;whiteSpace=wrap;html=1;fontSize=16;fontFamily=Times New Roman;fillColor=#6d8764;fontColor=#ffffff;strokeColor=#3A5431;" parent="G73dcHl8T9tQuUAj2ZNt-3" vertex="1">
          <mxGeometry x="40" y="290" width="120" height="60" as="geometry" />
        </mxCell>
        <mxCell id="G73dcHl8T9tQuUAj2ZNt-26" style="edgeStyle=orthogonalEdgeStyle;rounded=0;orthogonalLoop=1;jettySize=auto;html=1;exitX=0.5;exitY=1;exitDx=0;exitDy=0;entryX=0.5;entryY=0;entryDx=0;entryDy=0;" parent="G73dcHl8T9tQuUAj2ZNt-3" source="G73dcHl8T9tQuUAj2ZNt-11" target="G73dcHl8T9tQuUAj2ZNt-12" edge="1">
          <mxGeometry relative="1" as="geometry" />
        </mxCell>
        <mxCell id="G73dcHl8T9tQuUAj2ZNt-11" value="Извлечение признаков" style="rounded=0;whiteSpace=wrap;html=1;fontSize=16;fontFamily=Times New Roman;fillColor=#b0e3e6;strokeColor=#0e8088;" parent="G73dcHl8T9tQuUAj2ZNt-3" vertex="1">
          <mxGeometry x="40" y="200" width="120" height="60" as="geometry" />
        </mxCell>
        <mxCell id="G73dcHl8T9tQuUAj2ZNt-25" style="edgeStyle=orthogonalEdgeStyle;rounded=0;orthogonalLoop=1;jettySize=auto;html=1;exitX=0.5;exitY=1;exitDx=0;exitDy=0;entryX=0.5;entryY=0;entryDx=0;entryDy=0;" parent="G73dcHl8T9tQuUAj2ZNt-3" source="G73dcHl8T9tQuUAj2ZNt-10" target="G73dcHl8T9tQuUAj2ZNt-11" edge="1">
          <mxGeometry relative="1" as="geometry" />
        </mxCell>
        <mxCell id="G73dcHl8T9tQuUAj2ZNt-10" value="Входные документы" style="rounded=0;whiteSpace=wrap;html=1;fontSize=16;fontFamily=Times New Roman;fillColor=#bac8d3;strokeColor=#23445d;" parent="G73dcHl8T9tQuUAj2ZNt-3" vertex="1">
          <mxGeometry x="40" y="110" width="120" height="60" as="geometry" />
        </mxCell>
        <mxCell id="G73dcHl8T9tQuUAj2ZNt-24" style="edgeStyle=orthogonalEdgeStyle;rounded=0;orthogonalLoop=1;jettySize=auto;html=1;exitX=0.5;exitY=1;exitDx=0;exitDy=0;entryX=0.5;entryY=0;entryDx=0;entryDy=0;" parent="G73dcHl8T9tQuUAj2ZNt-3" source="G73dcHl8T9tQuUAj2ZNt-9" target="G73dcHl8T9tQuUAj2ZNt-10" edge="1">
          <mxGeometry relative="1" as="geometry" />
        </mxCell>
        <mxCell id="G73dcHl8T9tQuUAj2ZNt-9" value="Прогноз" style="rounded=0;whiteSpace=wrap;html=1;fontSize=16;fontFamily=Times New Roman;fillColor=#0050ef;strokeColor=#001DBC;fontColor=#ffffff;" parent="G73dcHl8T9tQuUAj2ZNt-3" vertex="1">
          <mxGeometry x="40" y="20" width="120" height="60" as="geometry" />
        </mxCell>
        <mxCell id="G73dcHl8T9tQuUAj2ZNt-8" value="Тема документа" style="rounded=1;whiteSpace=wrap;html=1;fontSize=16;fontFamily=Times New Roman;fillColor=#ffcc99;strokeColor=#36393d;" parent="1" vertex="1">
          <mxGeometry x="400" y="650" width="120" height="60" as="geometry" />
        </mxCell>
        <mxCell id="G73dcHl8T9tQuUAj2ZNt-23" style="edgeStyle=orthogonalEdgeStyle;rounded=0;orthogonalLoop=1;jettySize=auto;html=1;exitX=1;exitY=0.5;exitDx=0;exitDy=0;entryX=0;entryY=0.5;entryDx=0;entryDy=0;" parent="1" source="G73dcHl8T9tQuUAj2ZNt-5" target="G73dcHl8T9tQuUAj2ZNt-12" edge="1">
          <mxGeometry relative="1" as="geometry" />
        </mxCell>
        <mxCell id="G73dcHl8T9tQuUAj2ZNt-28" style="edgeStyle=orthogonalEdgeStyle;rounded=0;orthogonalLoop=1;jettySize=auto;html=1;exitX=0.5;exitY=1;exitDx=0;exitDy=0;entryX=0.5;entryY=0;entryDx=0;entryDy=0;" parent="1" source="G73dcHl8T9tQuUAj2ZNt-12" target="G73dcHl8T9tQuUAj2ZNt-8" edge="1">
          <mxGeometry relative="1" as="geometry" />
        </mxCell>
        <mxCell id="JvdsBF4iEcxNtu2yoZU8-1" value="" style="swimlane;startSize=0;" parent="1" vertex="1">
          <mxGeometry x="80" y="120" width="550" height="600" as="geometry" />
        </mxCell>
      </root>
    </mxGraphModel>
  </diagram>
  <diagram id="y1-Fh2HP1PC3PUg6u4u2" name="Trang-2">
    <mxGraphModel dx="1328" dy="795" grid="1" gridSize="10" guides="1" tooltips="1" connect="1" arrows="1" fold="1" page="1" pageScale="1" pageWidth="827" pageHeight="1169" math="0" shadow="0">
      <root>
        <mxCell id="0" />
        <mxCell id="1" parent="0" />
        <mxCell id="Xz2d2WijtF3MVqw9i_gr-5" style="edgeStyle=orthogonalEdgeStyle;rounded=0;orthogonalLoop=1;jettySize=auto;html=1;exitX=0.5;exitY=1;exitDx=0;exitDy=0;exitPerimeter=0;entryX=0.5;entryY=0;entryDx=0;entryDy=0;" parent="1" source="Xz2d2WijtF3MVqw9i_gr-1" target="Xz2d2WijtF3MVqw9i_gr-2" edge="1">
          <mxGeometry relative="1" as="geometry" />
        </mxCell>
        <mxCell id="Xz2d2WijtF3MVqw9i_gr-1" value="Тексты новости" style="shape=note;whiteSpace=wrap;html=1;backgroundOutline=1;darkOpacity=0.05;fontFamily=Times New Roman;fontSize=16;" parent="1" vertex="1">
          <mxGeometry x="125" y="140" width="100" height="120" as="geometry" />
        </mxCell>
        <mxCell id="Xz2d2WijtF3MVqw9i_gr-2" value="Набор данных новостей" style="shape=datastore;whiteSpace=wrap;html=1;fontFamily=Times New Roman;fontSize=16;" parent="1" vertex="1">
          <mxGeometry x="120" y="362.5" width="110" height="117.5" as="geometry" />
        </mxCell>
        <mxCell id="Xz2d2WijtF3MVqw9i_gr-3" value="Набор признаков" style="shape=cube;whiteSpace=wrap;html=1;boundedLbl=1;backgroundOutline=1;darkOpacity=0.05;darkOpacity2=0.1;fontFamily=Times New Roman;fontSize=16;" parent="1" vertex="1">
          <mxGeometry x="456" y="384" width="150" height="95" as="geometry" />
        </mxCell>
        <mxCell id="Xz2d2WijtF3MVqw9i_gr-7" style="edgeStyle=orthogonalEdgeStyle;rounded=0;orthogonalLoop=1;jettySize=auto;html=1;exitX=1;exitY=0.5;exitDx=0;exitDy=0;entryX=0;entryY=0;entryDx=0;entryDy=37.5;entryPerimeter=0;" parent="1" source="Xz2d2WijtF3MVqw9i_gr-2" target="Xz2d2WijtF3MVqw9i_gr-3" edge="1">
          <mxGeometry relative="1" as="geometry" />
        </mxCell>
        <mxCell id="Xz2d2WijtF3MVqw9i_gr-8" style="edgeStyle=orthogonalEdgeStyle;rounded=0;orthogonalLoop=1;jettySize=auto;html=1;exitX=0;exitY=0;exitDx=65;exitDy=0;exitPerimeter=0;entryX=0.5;entryY=1;entryDx=0;entryDy=0;entryPerimeter=0;" parent="1" source="Xz2d2WijtF3MVqw9i_gr-3" target="Xz2d2WijtF3MVqw9i_gr-4" edge="1">
          <mxGeometry relative="1" as="geometry" />
        </mxCell>
        <mxCell id="Xz2d2WijtF3MVqw9i_gr-11" style="edgeStyle=orthogonalEdgeStyle;rounded=0;orthogonalLoop=1;jettySize=auto;html=1;exitX=0;exitY=0;exitDx=65;exitDy=0;exitPerimeter=0;entryX=0.5;entryY=1;entryDx=0;entryDy=0;entryPerimeter=0;" parent="1" source="Xz2d2WijtF3MVqw9i_gr-3" target="Xz2d2WijtF3MVqw9i_gr-9" edge="1">
          <mxGeometry relative="1" as="geometry" />
        </mxCell>
        <mxCell id="Xz2d2WijtF3MVqw9i_gr-12" style="edgeStyle=orthogonalEdgeStyle;rounded=0;orthogonalLoop=1;jettySize=auto;html=1;exitX=0;exitY=0;exitDx=65;exitDy=0;exitPerimeter=0;entryX=0.5;entryY=1;entryDx=0;entryDy=0;entryPerimeter=0;" parent="1" source="Xz2d2WijtF3MVqw9i_gr-3" target="Xz2d2WijtF3MVqw9i_gr-10" edge="1">
          <mxGeometry relative="1" as="geometry" />
        </mxCell>
        <mxCell id="Xz2d2WijtF3MVqw9i_gr-13" value="" style="swimlane;startSize=0;" parent="1" vertex="1">
          <mxGeometry x="60" y="90" width="720" height="420" as="geometry" />
        </mxCell>
        <mxCell id="Xz2d2WijtF3MVqw9i_gr-10" value="Новости о Здоровье" style="shape=note;whiteSpace=wrap;html=1;backgroundOutline=1;darkOpacity=0.05;fontFamily=Times New Roman;fontSize=16;" parent="Xz2d2WijtF3MVqw9i_gr-13" vertex="1">
          <mxGeometry x="470" y="50" width="100" height="120" as="geometry" />
        </mxCell>
        <mxCell id="Xz2d2WijtF3MVqw9i_gr-4" value="Спортивные новости" style="shape=note;whiteSpace=wrap;html=1;backgroundOutline=1;darkOpacity=0.05;fontFamily=Times New Roman;fontSize=16;" parent="Xz2d2WijtF3MVqw9i_gr-13" vertex="1">
          <mxGeometry x="234" y="50" width="100" height="120" as="geometry" />
        </mxCell>
        <mxCell id="Xz2d2WijtF3MVqw9i_gr-9" value="Новости об Образование" style="shape=note;whiteSpace=wrap;html=1;backgroundOutline=1;darkOpacity=0.05;fontFamily=Times New Roman;fontSize=16;" parent="Xz2d2WijtF3MVqw9i_gr-13" vertex="1">
          <mxGeometry x="350" y="50" width="100" height="120" as="geometry" />
        </mxCell>
        <mxCell id="_fKD_lf0vh38gZbONW1j-1" value="Другие" style="shape=note;whiteSpace=wrap;html=1;backgroundOutline=1;darkOpacity=0.05;fontFamily=Times New Roman;fontSize=16;" vertex="1" parent="Xz2d2WijtF3MVqw9i_gr-13">
          <mxGeometry x="600" y="50" width="100" height="120" as="geometry" />
        </mxCell>
        <mxCell id="_fKD_lf0vh38gZbONW1j-2" style="edgeStyle=orthogonalEdgeStyle;rounded=0;orthogonalLoop=1;jettySize=auto;html=1;exitX=0;exitY=0;exitDx=65;exitDy=0;exitPerimeter=0;entryX=0.5;entryY=1;entryDx=0;entryDy=0;entryPerimeter=0;" edge="1" parent="1" source="Xz2d2WijtF3MVqw9i_gr-3" target="_fKD_lf0vh38gZbONW1j-1">
          <mxGeometry relative="1" as="geometry" />
        </mxCell>
      </root>
    </mxGraphModel>
  </diagram>
</mxfile>
